<svg width="215" height="82" viewBox="0 0 215 82" fill="none" xmlns="http://www.w3.org/2000/svg">
<path d="M108.959 75.9952C128.567 75.9952 144.462 60.1001 144.462 40.4925C144.462 20.8849 128.567 4.98983 108.959 4.98983C89.3516 4.98983 73.4565 20.8849 73.4565 40.4925C73.4565 60.1001 89.3516 75.9952 108.959 75.9952Z" stroke="white" stroke-width="9.55842"/>
<path d="M129.442 40.4928C129.442 51.8049 120.271 60.9752 108.959 60.9752C97.6472 60.9752 88.477 51.8049 88.477 40.4928C88.477 29.1807 97.6472 20.0105 108.959 20.0105C120.271 20.0105 129.442 29.1807 129.442 40.4928Z" fill="#0060AA"/>
<path d="M12.223 1L37.5192 64.5594L31.6734 63.3903L55.6942 1H67.7046L33.7992 81.3527L0 1H12.223Z" fill="white"/>
<path d="M150.112 1.09478H163.548L215 80.0746H201.454L150.112 1.09478ZM149.02 80.0746L176.439 37.1437L181.573 47.4122L162.128 80.0746H149.02ZM181.901 33.3203L201.127 1.09478H213.908L187.581 42.1687L181.901 33.3203Z" fill="white"/>
</svg>
